<svg version="1.1" id="Layer_1" xmlns="http://www.w3.org/2000/svg" xmlns:xlink="http://www.w3.org/1999/xlink" x="0px" y="0px"
	 width="100%" viewBox="0 0 1024 1024" enable-background="new 0 0 1024 1024" xml:space="preserve">
<path fill="#000000" opacity="1.000000" stroke="none" 
	d="
M355.709412,409.586548 
	C346.386658,431.824615 335.905884,453.003998 320.813416,471.518890 
	C290.533661,508.664948 252.591965,533.586548 205.181778,543.024536 
	C195.387955,544.974243 185.416824,545.745728 175.396530,545.300232 
	C168.661911,545.000854 163.832550,540.524536 163.855667,534.607666 
	C163.878967,528.646179 168.603455,524.675781 175.744858,524.660522 
	C210.202545,524.586670 240.352722,512.142822 267.955750,492.472900 
	C298.751831,470.527527 319.285400,440.726166 333.879059,406.339264 
	C342.008179,387.184662 348.516357,367.358246 357.788239,348.681763 
	C362.243805,339.706818 366.912994,330.860352 374.938171,324.400787 
	C384.999084,316.302643 392.608734,315.783508 403.779358,322.388062 
	C404.611481,322.880035 405.513306,323.254120 406.740692,323.859619 
	C413.552277,313.987305 421.684387,305.613892 433.279663,302.014709 
	C445.168579,298.324371 455.915405,301.712463 465.789490,309.268982 
	C467.867584,307.205322 468.208923,304.476776 469.022308,302.055603 
	C475.570618,282.564056 478.457642,262.369263 480.774719,242.023254 
	C482.932343,223.077393 483.667938,203.818756 491.074036,185.834137 
	C492.333221,182.776291 493.923828,179.794647 495.762695,177.046371 
	C503.202026,165.927933 516.395874,164.370316 526.335327,173.394470 
	C534.304565,180.629807 537.615601,190.527618 541.211182,200.199387 
	C549.316406,222.001587 550.348755,244.507339 548.602112,267.496613 
	C547.546082,281.396851 548.163086,295.399017 549.824097,309.340057 
	C551.843933,326.292908 555.090576,343.066833 556.480652,360.120453 
	C557.778992,376.049713 557.926758,392.002686 558.691833,407.939880 
	C559.421326,423.136871 562.719788,437.518951 571.909790,450.119293 
	C580.624268,462.067596 589.738953,463.811493 601.705505,455.153412 
	C612.661011,447.226837 621.821289,437.200317 632.167114,428.541931 
	C646.630676,416.437439 661.236938,404.528381 678.537964,396.620056 
	C709.177856,382.614563 738.908936,385.459747 768.052185,401.491425 
	C784.977478,410.801941 799.622864,423.076996 814.426147,435.248505 
	C830.509094,448.472168 846.618225,461.746582 866.203613,469.728271 
	C870.044678,471.293579 873.995789,472.604767 877.942078,473.892456 
	C884.759766,476.117035 888.412415,481.289001 886.919189,486.796356 
	C885.183044,493.199158 879.748901,496.163696 872.392029,494.307007 
	C852.462585,489.277283 835.382446,478.748627 819.272949,466.407349 
	C801.435181,452.741943 784.971558,437.287079 765.941040,425.180573 
	C749.041870,414.429993 731.198792,406.884277 710.457703,409.298462 
	C697.756653,410.776825 686.430847,415.677582 675.726257,422.364319 
	C661.671082,431.144012 649.271057,442.002167 636.966858,453.000641 
	C629.148987,459.988861 621.408630,467.054474 612.900757,473.258728 
	C590.778015,489.391479 570.000977,482.354950 555.906982,465.462646 
	C545.014771,452.407745 540.142151,436.833862 538.576538,420.013977 
	C537.218445,405.422516 537.070862,390.804321 536.530396,376.184967 
	C535.965576,360.907623 533.738464,345.748474 531.256470,330.659821 
	C527.102295,305.405609 527.011780,280.047455 528.392883,254.559586 
	C529.401917,235.938675 527.005493,217.716171 518.315125,200.792740 
	C516.860291,197.959778 514.915894,195.578369 511.939484,193.301437 
	C507.613617,200.391449 506.521118,208.089371 505.353394,215.713654 
	C501.308594,242.123383 500.707520,269.050873 493.384430,294.969025 
	C490.353729,305.695282 487.600861,316.514801 482.209564,326.400146 
	C480.525574,329.487823 478.585052,332.395233 476.030975,334.832703 
	C470.052216,340.538574 462.393188,339.776642 457.551453,333.017609 
	C456.389771,331.395905 455.415466,329.621246 454.125214,328.113556 
	C448.262360,321.262726 441.508453,320.481476 434.291656,325.825226 
	C428.121613,330.393890 423.993011,336.661865 420.315308,343.233429 
	C418.284119,346.862885 416.523071,350.644226 414.660950,354.367462 
	C412.660248,358.367767 409.317719,360.384399 404.975250,360.114502 
	C400.478333,359.834991 397.097015,357.557098 395.661530,353.037109 
	C394.907593,350.663147 394.389832,348.210754 393.568176,345.862793 
	C392.874878,343.881622 392.672150,341.151489 390.216949,340.703247 
	C387.774597,340.257355 386.590088,342.630676 385.265747,344.315704 
	C382.365997,348.005249 380.218933,352.131470 378.108002,356.303436 
	C369.443939,373.426666 363.192719,391.557709 355.709412,409.586548 
z"/>
<path fill="#000000" opacity="1.000000" stroke="none" 
	d="
M469.098297,718.644470 
	C484.916595,718.651062 500.257782,718.357727 515.580322,718.764648 
	C526.949036,719.066528 537.758667,721.736877 545.810120,730.709839 
	C562.109741,748.875000 557.571777,779.928345 536.692688,792.328796 
	C532.993713,794.525696 532.839844,796.525391 534.766052,799.943665 
	C540.897644,810.824646 546.876221,821.793457 552.787354,832.796387 
	C555.781006,838.368713 554.269897,840.801514 547.828003,840.890747 
	C542.999634,840.957642 538.164001,840.581604 533.337646,840.684814 
	C529.481201,840.767334 527.265930,839.018372 525.526245,835.694763 
	C519.811096,824.775879 513.751343,814.036743 508.082825,803.094482 
	C505.905182,798.890869 503.132782,797.145813 498.239990,797.249329 
	C482.385040,797.584900 484.477478,795.798340 484.359131,811.191833 
	C484.300201,818.857971 484.125885,826.532959 484.412842,834.188599 
	C484.594116,839.024536 482.479553,840.892883 477.969360,840.846741 
	C475.470032,840.821167 472.969940,840.883118 470.470276,840.874817 
	C460.980255,840.843262 459.864594,839.892639 459.828644,830.242859 
	C459.727417,803.076843 459.774475,775.910217 459.765747,748.743835 
	C459.763489,741.743896 459.768066,734.743958 459.774597,727.744019 
	C459.782898,718.812622 459.893677,718.700867 469.098297,718.644470 
M510.315674,740.433289 
	C503.330902,740.479736 496.346008,740.513855 489.361420,740.578308 
	C486.278290,740.606750 484.298615,741.723999 484.334167,745.275696 
	C484.419128,753.763672 484.372833,762.252991 484.360748,770.741760 
	C484.356079,774.023682 485.994202,775.710876 489.239380,775.712646 
	C498.226929,775.717590 507.227448,775.953918 516.198120,775.550110 
	C524.167297,775.191345 529.964783,769.758789 530.688477,762.904541 
	C531.910278,751.333069 528.543762,744.530029 520.008240,741.945862 
	C517.180481,741.089661 514.143616,740.923767 510.315674,740.433289 
z"/>
<path fill="#000000" opacity="1.000000" stroke="none" 
	d="
M524.652710,659.999878 
	C524.656555,629.188171 524.654175,598.876465 524.670349,568.564758 
	C524.673828,562.035217 524.998291,561.691650 531.374451,561.680664 
	C548.362305,561.651306 565.350342,561.610229 582.337952,561.668579 
	C603.627930,561.741638 618.373657,575.594849 620.407349,596.771851 
	C621.450989,607.639404 619.598083,617.504822 613.027039,626.373047 
	C609.864258,630.641418 605.723267,633.627197 601.092712,636.007141 
	C597.767517,637.716248 597.070740,639.565369 599.175293,643.091614 
	C605.572327,653.809387 611.622192,664.736023 617.712341,675.634399 
	C620.800964,681.161438 619.572937,683.250732 613.326721,683.341064 
	C608.497803,683.410950 603.659302,683.183777 598.839600,683.405823 
	C594.433228,683.608826 591.749939,681.668762 589.665894,677.919373 
	C583.844177,667.445801 577.696655,657.153259 571.890991,646.671082 
	C569.714661,642.741638 567.000549,641.072693 562.332397,641.160522 
	C548.353333,641.423706 548.351318,641.225159 548.349487,655.209656 
	C548.348511,662.704285 548.200439,670.202576 548.392395,677.692139 
	C548.494751,681.682434 547.173828,683.589111 542.968018,683.401306 
	C538.480042,683.200989 533.976501,683.324524 529.479980,683.350952 
	C526.182312,683.370300 524.607056,681.870239 524.652161,678.486633 
	C524.731995,672.492065 524.661011,666.495544 524.652710,659.999878 
M548.351868,589.866455 
	C548.353333,598.178650 548.418030,606.491638 548.323181,614.802734 
	C548.288391,617.854065 549.383301,619.647583 552.578491,619.580688 
	C562.037842,619.382629 571.530396,620.358887 580.953918,618.935181 
	C591.950378,617.273926 597.270386,610.940247 596.731567,600.314148 
	C596.227600,590.372437 589.294739,583.622559 578.854980,583.327454 
	C570.549438,583.092712 562.231140,583.343567 553.921387,583.205444 
	C549.810303,583.137146 548.136414,585.040955 548.351868,589.866455 
z"/>
<path fill="#000000" opacity="1.000000" stroke="none" 
	d="
M628.199585,840.374573 
	C616.751587,841.240051 605.751526,840.981262 594.761658,840.804810 
	C587.834900,840.693665 586.663940,839.314270 586.661865,832.435730 
	C586.651123,797.110413 586.654297,761.785156 586.671753,726.459839 
	C586.675232,719.472290 587.483826,718.534668 594.392090,718.671875 
	C610.201782,718.986023 626.015015,717.968140 641.828003,719.541504 
	C670.627502,722.406921 690.415283,743.494202 691.355408,772.730347 
	C691.749451,784.985168 691.143188,797.074219 685.543518,808.294617 
	C675.191345,829.038025 657.107666,837.623779 635.151245,839.959900 
	C632.999817,840.188782 630.829041,840.236084 628.199585,840.374573 
M665.080139,763.458496 
	C661.611145,751.821411 653.715027,744.950989 642.033752,742.339417 
	C633.175354,740.359070 624.155212,740.908691 615.175476,741.039734 
	C612.134399,741.084045 611.321411,742.948547 611.326233,745.692383 
	C611.366516,768.517578 611.395813,791.343140 611.299683,814.168091 
	C611.284485,817.774109 612.875366,818.684082 616.158203,818.704895 
	C622.663574,818.746216 629.133240,818.519897 635.574341,817.589355 
	C651.957520,815.222412 663.462952,804.897339 666.423828,789.829285 
	C668.116699,781.213440 667.582214,772.671814 665.080139,763.458496 
z"/>
<path fill="#000000" opacity="1.000000" stroke="none" 
	d="
M373.000000,840.904419 
	C365.171173,840.891235 357.837982,840.718811 350.515076,840.920837 
	C345.472534,841.059875 343.152161,838.744019 342.925354,833.925781 
	C342.854919,832.429321 342.828979,830.929504 342.828613,829.431213 
	C342.820526,795.118713 342.814575,760.806274 342.819214,726.493774 
	C342.820221,719.008240 343.159668,718.662903 350.791931,718.657288 
	C373.777924,718.640503 396.763977,718.631653 419.749908,718.661011 
	C425.794556,718.668762 426.214874,719.146729 426.276276,725.258362 
	C426.311371,728.755798 426.225616,732.255310 426.302917,735.751404 
	C426.384186,739.427185 424.616272,740.638306 421.047638,740.601440 
	C405.402771,740.439819 389.755981,740.443542 374.109894,740.434021 
	C367.669342,740.430054 367.377502,740.768005 367.352875,747.253540 
	C367.335175,751.917297 367.330109,756.581360 367.354553,761.245056 
	C367.388855,767.793152 368.231842,768.612610 374.971802,768.620178 
	C386.131653,768.632812 397.294708,768.776794 408.449829,768.545898 
	C413.124207,768.449219 415.934479,769.567993 415.450409,774.854614 
	C415.377136,775.654541 415.724518,776.488220 415.843201,777.311218 
	C417.384125,787.995911 415.388824,790.379761 404.909210,790.385986 
	C394.249023,790.392273 383.586823,790.518066 372.929657,790.342346 
	C368.971680,790.277100 367.084412,791.366455 367.282867,795.688477 
	C367.557617,801.672241 367.509033,807.683533 367.299042,813.672485 
	C367.158722,817.674683 368.922211,818.896790 372.675781,818.871521 
	C388.332214,818.766052 403.989807,818.809570 419.646912,818.836670 
	C425.783722,818.847290 426.209290,819.303345 426.273132,825.340515 
	C426.299530,827.838745 426.292999,830.337402 426.285980,832.835876 
	C426.264557,840.477478 425.834076,840.912109 417.972809,840.916809 
	C403.148529,840.925598 388.324280,840.910217 373.000000,840.904419 
z"/>
<path fill="#000000" opacity="1.000000" stroke="none" 
	d="
M724.979980,683.380249 
	C703.323181,683.377380 682.162476,683.386719 661.001709,683.364075 
	C654.334290,683.356995 653.711487,682.771362 653.707581,676.322144 
	C653.685974,640.165588 653.769043,604.008667 653.602905,567.852905 
	C653.580505,562.978760 655.270447,561.555603 659.978638,561.589844 
	C683.970642,561.764587 707.964600,561.659485 731.957886,561.681030 
	C738.108765,561.686523 738.289368,561.920959 738.334961,568.259460 
	C738.443909,583.384338 738.443848,583.381653 723.432068,583.379578 
	C710.435730,583.377747 697.437622,583.502991 684.443909,583.318604 
	C680.025269,583.255859 678.014343,584.557617 678.269409,589.304077 
	C678.590881,595.285156 678.537476,601.304749 678.281433,607.292175 
	C678.100586,611.520874 679.832092,612.788940 683.870850,612.731873 
	C696.198242,612.557800 708.532043,612.810364 720.858337,612.599609 
	C725.383179,612.522278 727.306396,613.806641 727.676147,618.690369 
	C728.788147,633.379517 729.006714,633.360413 714.523865,633.366150 
	C704.360046,633.370178 694.194885,633.482605 684.033142,633.343323 
	C679.746704,633.284668 678.046570,634.919495 678.273193,639.281128 
	C678.558044,644.764832 678.518555,650.281982 678.286072,655.770630 
	C678.102295,660.108032 679.856934,661.715271 684.142517,661.681458 
	C700.137024,661.554993 716.135437,661.786316 732.127258,661.543884 
	C736.828064,661.472656 738.930664,662.747742 738.393982,667.686707 
	C738.071838,670.650391 738.358154,673.678528 738.342224,676.677612 
	C738.308289,683.075195 738.043884,683.329834 731.474426,683.379639 
	C729.475037,683.394775 727.475464,683.380737 724.979980,683.380249 
z"/>
<path fill="#000000" opacity="1.000000" stroke="none" 
	d="
M727.397583,718.773682 
	C751.857117,718.694763 775.856201,718.744873 799.854004,718.595093 
	C804.637268,718.565247 806.544250,720.514893 806.317505,725.157349 
	C806.155090,728.482605 806.187134,731.825989 806.312927,735.154480 
	C806.454529,738.899841 805.010193,740.561401 801.052307,740.559387 
	C784.897766,740.551270 768.742432,740.882324 752.588867,740.799377 
	C748.646240,740.779175 747.152710,741.976746 747.300293,745.912842 
	C747.506165,751.404907 747.545593,756.919434 747.291992,762.407532 
	C747.076538,767.070557 749.267334,768.647217 753.568054,768.623718 
	C765.400513,768.559143 777.237000,768.777100 789.064819,768.535889 
	C793.842468,768.438477 795.794617,770.086609 795.398499,774.890015 
	C795.125366,778.200867 795.201660,781.559448 795.375000,784.883484 
	C795.588440,788.974854 793.857971,790.491760 789.766113,790.436401 
	C777.768799,790.273804 765.762268,790.600708 753.770874,790.290771 
	C748.700562,790.159729 746.912476,791.808533 747.263367,796.864563 
	C747.643250,802.338074 747.530701,807.865906 747.293701,813.355469 
	C747.113647,817.526306 748.816406,818.929565 752.872131,818.892090 
	C768.203674,818.750122 783.537109,818.812866 798.869873,818.828918 
	C805.976501,818.836365 806.311523,819.122375 806.279968,826.119568 
	C806.205505,842.630981 808.116333,840.874084 791.698364,840.916199 
	C771.699341,840.967529 751.699890,840.948486 731.700745,840.910400 
	C724.594177,840.896851 723.706848,839.982788 723.702332,832.790283 
	C723.679626,797.124939 723.683289,761.459656 723.691223,725.794312 
	C723.691895,722.993408 723.215881,719.921204 727.397583,718.773682 
z"/>
<path fill="#000000" opacity="1.000000" stroke="none" 
	d="
M401.857971,668.984009 
	C401.857361,635.835693 401.854401,603.184937 401.858154,570.534119 
	C401.859100,562.062317 402.250000,561.670105 410.468109,561.670471 
	C433.123779,561.671387 455.779419,561.661743 478.435089,561.679626 
	C484.979248,561.684814 485.299164,562.021362 485.344116,568.370239 
	C485.366547,571.535217 485.210205,574.707703 485.378326,577.863831 
	C485.598724,582.002258 483.700256,583.439453 479.699860,583.411987 
	C464.041595,583.304382 448.382111,583.375427 432.723053,583.387817 
	C426.315918,583.392883 425.499634,584.145508 425.411346,590.483032 
	C425.334778,595.979309 425.544891,601.483826 425.325195,606.972595 
	C425.148376,611.389099 427.095184,612.782654 431.310669,612.725342 
	C443.469147,612.559875 455.631409,612.650757 467.792084,612.682983 
	C473.824890,612.699036 474.280914,613.191223 474.333557,619.295654 
	C474.360870,622.460510 474.202545,625.633789 474.381744,628.788818 
	C474.581909,632.312256 472.999664,633.433899 469.635315,633.405273 
	C456.975769,633.297485 444.312012,633.517517 431.655731,633.288391 
	C427.277527,633.209106 425.530487,635.025879 425.492401,639.079590 
	C425.439178,644.742798 425.487305,650.407715 425.367432,656.069214 
	C425.283051,660.053955 426.952026,661.727417 431.058411,661.691040 
	C446.549652,661.553711 462.042877,661.631042 477.535339,661.634399 
	C485.340851,661.636108 485.343475,661.642334 485.348511,669.672424 
	C485.350525,672.837524 485.264526,676.004639 485.352905,679.167053 
	C485.436035,682.141846 484.075104,683.364136 481.147644,683.360535 
	C456.326538,683.329834 431.505249,683.322021 406.684204,683.379272 
	C403.213196,683.387268 401.889404,681.668945 401.879944,678.476501 
	C401.871063,675.478149 401.865265,672.479797 401.857971,668.984009 
z"/>
<path fill="#000000" opacity="1.000000" stroke="none" 
	d="
M230.967346,733.189087 
	C240.386902,757.026672 249.648712,780.510864 259.117401,804.519592 
	C261.849579,802.370056 262.363678,799.867554 263.241333,797.658142 
	C272.825073,773.532959 282.449707,749.423096 291.828522,725.218079 
	C293.745850,720.269775 296.560638,717.983948 301.926697,718.570618 
	C305.220398,718.930664 308.586151,718.576965 311.915405,718.679199 
	C317.038361,718.836426 318.471527,720.856384 316.656250,725.785095 
	C313.378571,734.684387 309.887604,743.504944 306.500488,752.364014 
	C296.280212,779.095459 286.063202,805.828125 275.853607,832.563599 
	C272.675171,840.886841 272.687805,840.891602 263.601593,840.882324 
	C247.880524,840.866211 247.800552,840.897400 242.127411,826.327026 
	C229.449463,793.766235 216.857056,761.172180 204.241180,728.587280 
	C203.701538,727.193481 203.081161,725.788330 202.836014,724.331665 
	C202.282959,721.045532 203.183334,718.672852 207.109100,718.680237 
	C208.108643,718.682129 209.108521,718.641479 210.107727,718.655884 
	C228.486435,718.920654 223.904602,716.282776 230.967346,733.189087 
z"/>
<path fill="#000000" opacity="1.000000" stroke="none" 
	d="
M308.665253,638.999878 
	C308.664734,622.845398 308.672394,607.190918 308.660797,591.536438 
	C308.655365,584.189575 308.638580,584.172607 301.064423,584.153015 
	C293.070709,584.132385 285.074463,584.031372 277.084167,584.197083 
	C272.974213,584.282288 271.360535,582.633484 271.606140,578.550720 
	C271.835724,574.734192 271.846100,570.880920 271.604767,567.065857 
	C271.337128,562.834045 273.225159,561.578979 277.219666,561.622925 
	C290.707520,561.771362 304.197998,561.676819 317.687500,561.676758 
	C332.342773,561.676697 346.999176,561.782410 361.652618,561.618408 
	C366.291595,561.566589 368.528381,563.240234 368.326874,567.994934 
	C368.192993,571.153625 368.204956,574.325317 368.313568,577.485657 
	C368.471191,582.073547 366.459991,584.239014 361.770630,584.162231 
	C353.945343,584.034119 346.113129,584.247986 338.290985,584.043579 
	C334.068024,583.933228 332.272369,585.391479 332.339386,589.805725 
	C332.774231,618.441467 331.859039,647.085876 332.843384,675.719849 
	C333.074768,682.449829 332.277222,683.323669 325.769501,683.361633 
	C322.105835,683.383057 318.421265,683.117432 314.783142,683.422668 
	C309.809967,683.839783 308.506348,681.595459 308.590149,676.969604 
	C308.816284,664.483337 308.666290,651.990295 308.665253,638.999878 
z"/>
<path fill="#000000" opacity="1.000000" stroke="none" 
	d="
M689.847900,547.224243 
	C686.215393,547.209412 683.044373,547.371643 679.903809,547.133057 
	C676.008423,546.837280 674.742737,544.753723 676.725891,541.449280 
	C681.254700,533.902893 686.068787,526.526978 690.816650,519.113586 
	C691.854309,517.493347 693.419250,516.805054 695.405945,516.556335 
	C701.064758,515.847778 706.689331,516.694763 712.327942,516.643250 
	C714.610657,516.622437 715.964722,517.987854 717.094727,519.739685 
	C721.686768,526.859009 726.369812,533.921326 730.855652,541.106873 
	C733.521179,545.376648 732.518555,547.004456 727.459961,547.191162 
	C727.293945,547.197266 727.127563,547.192993 726.961365,547.191711 
	C718.160583,547.122986 708.310791,549.718262 704.525452,536.716431 
	C699.697998,541.539917 698.116577,549.082031 689.847900,547.224243 
z"/>
</svg>